PathFileType	4	(X/Y/Z)	markers
DataRate	CameraRate	NumFrames	NumMarkers	Units	OrigDataRate	OrigDataStartFrame	OrigNumFrames
200	200	5	39	mm	200	32	252
Frame#	Time	RASI			LASI			RPSI			LPSI			RTH1			RTH2			RTH3			RTH4			RLFC			RTB1			RTB2			RTB3			RTB4			RLMAL			RCAL			RTOE			RMT5			LTH1			LTH2			LTH3			LTH4			LLFC			LTB1			LTB2			LTB3			LTB4			LLMAL			LCAL			LTOE			LMT5			C7			T10			CLAV			RACR			LACR			RLEL			RFAradius			LLEL			LFAradius		
		X1	Y1	Z1	X2	Y2	Z2	X3	Y3	Z3	X4	Y4	Z4	X5	Y5	Z5	X6	Y6	Z6	X7	Y7	Z7	X8	Y8	Z8	X9	Y9	Z9	X10	Y10	Z10	X11	Y11	Z11	X12	Y12	Z12	X13	Y13	Z13	X14	Y14	Z14	X15	Y15	Z15	X16	Y16	Z16	X17	Y17	Z17	X18	Y18	Z18	X19	Y19	Z19	X20	Y20	Z20	X21	Y21	Z21	X22	Y22	Z22	X23	Y23	Z23	X24	Y24	Z24	X25	Y25	Z25	X26	Y26	Z26	X27	Y27	Z27	X28	Y28	Z28	X29	Y29	Z29	X30	Y30	Z30	X31	Y31	Z31	X32	Y32	Z32	X33	Y33	Z33	X34	Y34	Z34	X35	Y35	Z35	X36	Y36	Z36	X37	Y37	Z37	X38	Y38	Z38	X39	Y39	Z39
32	0.155000	285.179635	919.773169	705.891275	260.440772	941.261927	469.329306	111.079451	954.098721	655.928562	98.221260	963.067591	564.362024	335.860405	680.136372	752.338647	383.680840	698.005701	712.503896	421.357834	602.653769	710.350179	387.228702	586.370420	741.887581	417.555476	461.456752	718.638130	306.728033	437.432645	743.497440	317.182926	394.982453	721.774917	213.920929	370.470523	705.003571	206.215131	425.511421	739.790326	8.241442	387.720996	714.415280	-47.474505	434.504480	659.693970	2.302179	215.264751	640.364032	-7.635621	254.084756	741.069222	304.059945	680.739636	422.913716	337.572325	701.207947	453.880148	371.033148	609.898085	488.098468	328.224106	579.383452	448.458414	335.023214	451.755057	476.956343	296.025052	362.194686	458.626794	329.341798	343.611134	491.137226	273.849187	260.667241	512.593641	229.956607	282.501025	468.901787	120.196234	100.513394	519.890090	26.881339	98.195779	568.947001	244.000326	61.181735	592.031771	202.899135	55.596184	495.613341	207.101202	1458.645087	581.848973	110.875979	1277.149067	604.376184	314.380689	1367.715923	605.966447	254.510657	1434.274001	754.291620	248.587540	1410.071416	408.276248	94.607198	1147.333758	869.565443	259.222014	963.851916	795.851707	151.171616	1074.480273	319.346249	390.783186	1048.289369	394.920628
33	0.160000	299.465663	920.416002	706.353086	275.425278	939.788168	469.955160	126.710064	954.885061	653.956454	112.534286	962.703718	564.638285	354.330309	683.830051	753.297141	401.102665	703.150984	712.838517	441.676167	608.794830	710.131777	407.800092	591.529870	742.107586	441.254284	467.110159	718.750521	331.262163	441.231485	745.085625	342.495359	397.279028	721.427177	239.663943	369.975247	705.477270	230.815210	424.956320	740.487444	33.719638	381.596754	715.043221	-23.694790	425.522638	660.031109	34.058623	208.471002	641.008265	22.976662	246.899127	742.471965	314.980578	678.396744	423.603615	349.274129	698.253822	453.962482	380.476635	606.279641	488.679598	339.048182	575.463179	447.847623	342.317851	448.949139	477.854830	301.811384	359.053804	459.084220	333.977305	340.364867	491.456520	277.480258	258.161978	513.955508	233.446042	280.513471	469.192916	120.217702	101.929339	519.190736	27.329310	98.955465	569.164752	244.196261	61.069211	591.993639	202.921105	55.576369	495.615863	222.460906	1458.755426	581.267448	125.487630	1277.372078	602.789438	328.771381	1367.299595	606.930824	267.369892	1434.459220	753.876262	265.756599	1409.758438	407.944115	102.001725	1150.126630	868.979742	266.048172	964.782245	799.881397	172.262848	1073.567607	319.335356	411.747926	1053.403308	397.277351
34	0.165000	313.769492	920.757001	705.848408	290.452140	939.668799	470.119189	140.509932	954.866691	655.071842	127.294733	962.763038	564.723836	372.482713	688.008342	753.938557	418.427859	708.064447	711.787965	461.152056	614.686171	709.785421	428.392845	596.392669	742.204998	464.660521	473.273636	718.905269	354.623027	442.523230	745.586417	367.522977	399.997429	720.694348	266.304643	369.852652	704.898684	255.257513	424.024364	740.259797	59.501977	374.835543	714.688943	0.184237	416.934913	660.052788	66.458237	202.159318	641.717429	53.276868	239.748994	741.271595	326.284767	675.741884	424.547617	361.348690	695.919423	453.890568	389.993535	602.521923	489.683362	347.796964	573.093459	448.866890	348.637266	446.214940	478.098351	306.022638	356.603160	459.659486	338.976097	338.087885	491.083460	280.375616	255.675212	513.404949	236.690422	278.659657	469.680710	120.761213	101.807193	519.680193	28.437876	100.097767	569.017667	244.440541	61.063278	592.029090	202.985426	55.529848	495.766779	237.326555	1459.136379	580.831886	140.084492	1277.537952	601.338693	343.049435	1367.418611	606.953977	280.396952	1435.190172	753.526700	282.902528	1410.677586	407.747391	109.955506	1153.546159	867.937686	272.973955	965.907314	802.710633	193.272799	1073.478397	319.567386	432.003714	1059.520049	399.426361
35	0.170000	328.130383	922.397512	706.969790	305.109829	938.659964	471.153731	154.530867	955.294856	656.217959	142.181045	963.150273	564.479180	390.805822	692.659038	754.356244	435.790894	713.033054	710.915169	480.706956	621.073355	709.095674	449.031258	601.787039	742.133245	487.467933	480.087458	719.289476	379.676079	446.383572	745.104097	392.266877	403.107670	719.833654	291.616117	369.504108	705.481200	279.496786	423.141854	739.908470	84.623361	367.660670	714.475969	24.028926	406.917282	660.124885	98.813035	195.213116	642.265159	84.093821	232.529728	741.097946	337.685311	673.715595	425.021962	372.489877	692.945331	455.135162	398.243385	599.664128	490.143149	357.892796	570.621519	449.345008	353.754192	443.526346	478.581636	309.415525	353.211521	460.346784	342.427719	333.337268	493.080542	283.357799	253.665420	514.421374	239.693723	277.221866	470.469295	121.317822	101.970408	520.035618	28.671591	101.467608	570.330950	244.696524	60.992452	592.077775	203.154285	55.654371	495.994298	252.346694	1460.023941	580.277766	154.838394	1278.410001	599.396535	357.914705	1368.039438	607.760429	292.955341	1435.845521	753.291244	299.208071	1412.039594	407.941324	118.168378	1157.512355	866.587352	280.945165	968.063131	806.221943	214.131989	1073.914018	320.113390	452.461220	1066.060024	402.701718
36	0.175000	342.808736	924.233857	706.970297	320.216253	938.185902	471.215874	168.942788	956.870848	656.811211	156.698930	963.817946	564.486298	408.610261	697.106110	754.446661	452.551169	718.666442	712.065217	499.763504	628.332392	709.012676	468.598063	607.313328	742.052867	510.129084	486.809396	718.817152	402.605425	448.478247	744.987923	416.728153	406.579767	719.102319	317.910695	369.155682	704.919538	303.661481	423.124522	739.945642	109.474028	360.549595	714.579730	48.082175	397.066347	660.200578	131.766995	188.064956	642.454435	114.211767	224.750767	741.178386	349.069328	672.237495	425.216200	383.699506	690.751212	456.072002	408.194878	597.214651	490.154274	364.935975	568.594398	450.811207	358.692143	440.814579	478.738610	313.577752	352.334297	460.361989	346.414600	332.347269	491.105909	286.156083	251.512612	515.421702	242.628038	276.056561	471.423760	122.292125	102.675404	520.454351	29.930191	103.034392	570.408599	245.178378	61.024672	592.152485	203.435225	55.789669	496.171229	267.312408	1460.917341	579.998886	169.512859	1279.498407	597.549499	372.359705	1369.104884	608.728002	305.905335	1437.022436	753.125595	316.065394	1413.583062	407.925363	126.536657	1161.717633	865.309701	288.746029	970.619536	809.007143	235.319628	1074.643145	320.823166	472.590543	1073.351442	406.063957
